<svg width="20" height="20" viewBox="0 0 20 20" fill="none" xmlns="http://www.w3.org/2000/svg">
<path d="M19.9964 10.2682C20.0484 8.33022 19.5324 6.51025 18.6135 4.95028C18.8595 4.55729 18.9965 4.1053 18.9965 3.63031C18.9965 2.96232 18.7365 2.33533 18.2645 1.86234L18.1375 1.73534C17.3286 0.925358 16.0087 0.81736 15.0537 1.39135C13.6448 0.557365 12.0179 0.0503744 10.268 0.00237529C8.3221 -0.0396239 6.50321 0.477366 4.9463 1.39235C3.99035 0.81736 2.67243 0.926358 1.86248 1.73534L1.73548 1.86234C0.898534 2.69932 0.78554 3.9853 1.38651 4.95028C0.555554 6.35726 0.0505834 7.98123 0.0035862 9.73219C-0.0484108 11.6702 0.467559 13.4901 1.38651 15.0501C1.14052 15.4431 1.00353 15.8951 1.00353 16.3701C1.00353 17.0381 1.26351 17.665 1.73548 18.138L1.86248 18.265C2.33545 18.738 2.96241 18.997 3.63037 18.997C4.10735 18.997 4.56032 18.859 4.9533 18.612C6.36121 19.444 7.98512 19.95 9.73302 19.997C9.82301 19.999 9.91301 20 10.003 20C11.8399 20 13.5608 19.488 15.0467 18.612C15.4397 18.859 15.8927 18.997 16.3696 18.997C17.0376 18.997 17.6646 18.737 18.1375 18.265L18.2645 18.138C19.1025 17.3001 19.2155 16.0121 18.6115 15.0471C19.4434 13.6391 19.9494 12.0161 19.9964 10.2682ZM16.0176 3.14832C16.1446 3.02132 16.2926 3.00232 16.3706 3.00232C16.4486 3.00232 16.5966 3.02132 16.7246 3.14832L16.8516 3.27531C17.0456 3.47031 17.0456 3.7873 16.8516 3.9823L13.9238 6.91025C13.8918 6.87025 13.8478 6.84125 13.8148 6.80225C13.6178 6.56725 13.3998 6.35326 13.1628 6.15726C13.1348 6.13426 13.1138 6.10326 13.0848 6.08026L16.0176 3.14832ZM9.998 2.00034C10.069 2.00034 10.142 2.00134 10.214 2.00334C11.3999 2.03534 12.5139 2.33133 13.5128 2.82532L11.1899 5.14828C10.85 5.06528 10.498 5.01128 10.134 5.00128C9.68102 4.99228 9.24804 5.06228 8.82807 5.16528L6.48621 2.82332C7.54914 2.30033 8.74008 2.00034 9.998 2.00034ZM12.9988 10.0802C12.9888 10.4362 12.9058 10.7722 12.7828 11.0872C12.7818 11.0892 12.7798 11.0932 12.7798 11.0932C12.4719 11.8702 11.8619 12.4891 11.1029 12.7881C11.0909 12.7931 11.0819 12.8011 11.0709 12.8061C10.713 12.9431 10.325 13.0141 9.92101 12.9981C9.56603 12.9891 9.23205 12.9071 8.91906 12.7841C8.91506 12.7821 8.91206 12.7791 8.90806 12.7781C8.3391 12.5531 7.85913 12.1631 7.52315 11.6752C7.51315 11.6612 7.50115 11.6492 7.49115 11.6342C7.38515 11.4742 7.29616 11.3022 7.22416 11.1232C7.07317 10.7512 6.99118 10.3452 7.00318 9.91819C7.01318 9.5652 7.09317 9.2322 7.21416 8.92021C7.21616 8.91421 7.22016 8.91021 7.22316 8.90421C7.52815 8.13322 8.13211 7.52023 8.88307 7.21724C9.22805 7.07924 9.60502 7.00024 10 7.00024C10.026 7.00024 10.054 7.00024 10.08 7.00124C10.435 7.01024 10.769 7.09224 11.0819 7.21424C11.0859 7.21624 11.0889 7.21924 11.0939 7.22024C11.6619 7.44524 12.1419 7.83423 12.4779 8.32222C12.4879 8.33722 12.5009 8.34922 12.5109 8.36422C12.6178 8.52522 12.7078 8.69821 12.7798 8.87921C12.9298 9.2502 13.0098 9.65519 12.9988 10.0802ZM3.1494 3.27631L3.27639 3.14932C3.40439 3.02132 3.55338 3.00332 3.63037 3.00332C3.70737 3.00332 3.85636 3.02232 3.98435 3.14932L6.91018 6.07626C6.86219 6.11426 6.82819 6.16626 6.78219 6.20526C6.5632 6.39125 6.36421 6.59525 6.17922 6.81525C6.15023 6.85125 6.11023 6.87725 6.08123 6.91425L3.1494 3.9833C3.02141 3.8553 3.00341 3.70731 3.00341 3.63031C3.00341 3.55331 3.02141 3.40431 3.1494 3.27631ZM2.00347 9.78619C2.03547 8.60021 2.33145 7.48523 2.82442 6.48625L5.14828 8.81021C5.06529 9.1502 5.01129 9.5022 5.00129 9.86619C4.98929 10.3202 5.05829 10.7552 5.16128 11.1762L2.82842 13.5091C2.27545 12.3861 1.96747 11.1232 2.00347 9.78619ZM3.98235 16.8521C3.85536 16.9791 3.70737 16.9981 3.62937 16.9981C3.55138 16.9981 3.40339 16.9791 3.27539 16.8521L3.1484 16.7251C2.95441 16.5301 2.95441 16.2131 3.1484 16.0181L6.07523 13.0911C6.10723 13.1311 6.15123 13.1601 6.18422 13.1991C6.38121 13.4341 6.5992 13.6481 6.83619 13.8441C6.86418 13.8671 6.88518 13.8981 6.91418 13.9211L3.98235 16.8521ZM9.78601 17.997C8.60008 17.965 7.48615 17.669 6.48721 17.1751L8.81007 14.8521C9.15005 14.9351 9.50203 14.9891 9.86601 14.9991C9.91101 15.0001 9.956 15.0001 10.001 15.0001C10.409 15.0001 10.8 14.9361 11.1809 14.8431L13.5248 17.1871C12.4009 17.74 11.1339 18.043 9.78601 17.997ZM16.8506 16.7241L16.7236 16.8511C16.5956 16.9791 16.4476 16.9971 16.3696 16.9971C16.2916 16.9971 16.1436 16.9781 16.0156 16.8511L13.0888 13.9241C13.1318 13.8901 13.1628 13.8431 13.2048 13.8071C13.4348 13.6131 13.6448 13.4001 13.8368 13.1681C13.8608 13.1381 13.8938 13.1161 13.9178 13.0861L16.8496 16.0171C16.9776 16.1451 16.9956 16.2931 16.9956 16.3711C16.9956 16.4491 16.9786 16.5961 16.8506 16.7241ZM17.1806 13.5181L14.8517 11.1892C14.9347 10.8492 14.9897 10.4982 14.9997 10.1352V10.1342C15.0117 9.68019 14.9427 9.2452 14.8397 8.82421L17.1726 6.49125C17.7265 7.61423 18.0345 8.87721 17.9985 10.2142C17.9645 11.3992 17.6706 12.5161 17.1806 13.5181Z" fill="black"/>
</svg>
