<svg width="48" height="48" viewBox="0 0 48 48" fill="none" xmlns="http://www.w3.org/2000/svg">
<path d="M47.9914 24.6436C48.1162 19.9925 46.8779 15.6246 44.6724 11.8807C45.2628 10.9375 45.5915 9.85272 45.5915 8.71274C45.5915 7.10957 44.9676 5.60479 43.8348 4.46962L43.5301 4.16482C41.5886 2.22086 38.4208 1.96166 36.1289 3.33924C32.7475 1.33768 28.8429 0.120899 24.6432 0.00570069C19.973 -0.0950974 15.6077 1.14568 11.8711 3.34164C9.57685 1.96166 6.41383 2.22326 4.46995 4.16482L4.16516 4.46962C2.15648 6.47838 1.8853 9.56472 3.32761 11.8807C1.33333 15.2574 0.1214 19.1549 0.00860688 23.3573C-0.116186 28.0084 1.12214 32.3763 3.32761 36.1202C2.73725 37.0634 2.40847 38.1482 2.40847 39.2882C2.40847 40.8913 3.03243 42.3961 4.16516 43.5313L4.46995 43.8361C5.60508 44.9713 7.10979 45.5928 8.7129 45.5928C9.85763 45.5928 10.9448 45.2616 11.8879 44.6689C15.2669 46.6656 19.1643 47.88 23.3592 47.9928C23.5752 47.9976 23.7912 48 24.0072 48C28.4157 48 32.5459 46.7712 36.1121 44.6689C37.0552 45.2616 38.1424 45.5928 39.2871 45.5928C40.8902 45.5928 42.3949 44.9689 43.5301 43.8361L43.8348 43.5313C45.8459 41.5201 46.1171 38.429 44.6676 36.113C46.6643 32.7339 47.8786 28.8388 47.9914 24.6436ZM38.4424 7.55596C38.7471 7.25116 39.1023 7.20556 39.2895 7.20556C39.4767 7.20556 39.8319 7.25116 40.1391 7.55596L40.4438 7.86075C40.9094 8.32874 40.9094 9.08953 40.4438 9.55752L33.417 16.5846C33.3403 16.4886 33.2347 16.419 33.1555 16.3254C32.6827 15.7614 32.1595 15.2478 31.5908 14.7774C31.5236 14.7222 31.4732 14.6478 31.4036 14.5926L38.4424 7.55596ZM23.9952 4.80081C24.1656 4.80081 24.3408 4.80321 24.5136 4.80801C27.3598 4.88481 30.0332 5.59519 32.4307 6.78077L26.8558 12.3559C26.0399 12.1567 25.1951 12.0271 24.3216 12.0031C23.2344 11.9815 22.1953 12.1495 21.1874 12.3967L15.5669 6.77597C18.1179 5.5208 20.9762 4.80081 23.9952 4.80081ZM31.1972 24.1924C31.1732 25.0468 30.974 25.8532 30.6788 26.6092C30.6764 26.614 30.6716 26.6236 30.6716 26.6236C29.9325 28.4884 28.4685 29.9739 26.647 30.6915C26.6182 30.7035 26.5966 30.7227 26.5703 30.7347C25.7111 31.0635 24.78 31.2339 23.8104 31.1955C22.9585 31.1739 22.1569 30.9771 21.4058 30.6819C21.3962 30.6771 21.389 30.6699 21.3794 30.6675C20.0138 30.1275 18.8619 29.1915 18.0555 28.0204C18.0315 27.9868 18.0028 27.958 17.9788 27.922C17.7244 27.538 17.5108 27.1252 17.338 26.6956C16.9756 25.8028 16.7788 24.8284 16.8076 23.8037C16.8316 22.9565 17.0236 22.1573 17.314 21.4085C17.3188 21.3941 17.3284 21.3845 17.3356 21.3701C18.0675 19.5197 19.5171 18.0486 21.3194 17.3214C22.1473 16.9902 23.0521 16.8006 24 16.8006C24.0624 16.8006 24.1296 16.8006 24.192 16.803C25.0439 16.8246 25.8455 17.0214 26.5966 17.3142C26.6062 17.319 26.6134 17.3262 26.6254 17.3286C27.9886 17.8686 29.1405 18.8021 29.9469 19.9733C29.9709 20.0093 30.002 20.0381 30.026 20.0741C30.2828 20.4605 30.4988 20.8757 30.6716 21.3101C31.0316 22.2005 31.2236 23.1725 31.1972 24.1924ZM7.55856 7.86315L7.86335 7.55836C8.17053 7.25116 8.52811 7.20796 8.7129 7.20796C8.89769 7.20796 9.25527 7.25356 9.56245 7.55836L16.5844 14.583C16.4692 14.6742 16.3876 14.799 16.2773 14.8926C15.7517 15.339 15.2741 15.8286 14.8301 16.3566C14.7605 16.443 14.6645 16.5054 14.595 16.5942L7.55856 9.55992C7.25138 9.25273 7.20818 8.89753 7.20818 8.71274C7.20818 8.52794 7.25138 8.17035 7.55856 7.86315ZM4.80832 23.4869C4.88512 20.6405 5.59548 17.9646 6.77861 15.567L12.3559 21.1445C12.1567 21.9605 12.0271 22.8053 12.0031 23.6789C11.9743 24.7684 12.1399 25.8124 12.3871 26.8228L6.78821 32.4219C5.46109 29.7267 4.72193 26.6956 4.80832 23.4869ZM9.55765 40.4449C9.25286 40.7497 8.89769 40.7953 8.7105 40.7953C8.52331 40.7953 8.16813 40.7497 7.86095 40.4449L7.55616 40.1401C7.09059 39.6722 7.09059 38.9114 7.55616 38.4434L14.5806 31.4187C14.6573 31.5147 14.7629 31.5843 14.8421 31.6779C15.3149 32.2419 15.8381 32.7555 16.4068 33.2259C16.474 33.2811 16.5244 33.3555 16.594 33.4107L9.55765 40.4449ZM23.4864 43.1929C20.6402 43.1161 17.9668 42.4057 15.5693 41.2201L21.1442 35.645C21.9601 35.8442 22.8049 35.9738 23.6784 35.9978C23.7864 36.0002 23.8944 36.0002 24.0024 36.0002C24.9815 36.0002 25.9199 35.8466 26.8342 35.6234L32.4595 41.2489C29.7621 42.5761 26.7214 43.3033 23.4864 43.1929ZM40.4414 40.1377L40.1367 40.4425C39.8295 40.7497 39.4743 40.7929 39.2871 40.7929C39.0999 40.7929 38.7447 40.7473 38.4376 40.4425L31.4132 33.4179C31.5164 33.3363 31.5908 33.2235 31.6916 33.1371C32.2435 32.6715 32.7475 32.1603 33.2083 31.6035C33.2659 31.5315 33.3451 31.4787 33.4027 31.4067L40.439 38.441C40.7462 38.7482 40.7894 39.1034 40.7894 39.2906C40.7894 39.4778 40.7486 39.8306 40.4414 40.1377ZM41.2334 32.4435L35.6441 26.854C35.8433 26.038 35.9753 25.1956 35.9993 24.3244V24.322C36.0281 23.2325 35.8625 22.1885 35.6153 21.1781L41.2142 15.579C42.5437 18.2742 43.2829 21.3053 43.1965 24.514C43.1149 27.358 42.4093 30.0387 41.2334 32.4435Z" fill="#562990"/>
</svg>
