<svg width="18" height="16" viewBox="0 0 18 16" fill="none" xmlns="http://www.w3.org/2000/svg">
<path d="M8.99815 0.125C9.89815 0.125 10.7381 0.560234 11.2481 1.30273L17.3087 10.8799C18.0661 11.9748 18.2084 13.2727 17.6759 14.2852H17.6837C17.1587 15.2975 16.0558 15.875 14.6759 15.875H3.32822C1.94105 15.8749 0.846452 15.2973 0.321388 14.2852C-0.211095 13.2652 -0.0610487 11.9602 0.696388 10.8652L6.72568 1.3252C7.25812 0.560286 8.09827 0.125103 8.99815 0.125ZM8.99815 1.625C8.58582 1.6251 8.21106 1.81988 7.97861 2.15723L1.94053 11.6895C1.47565 12.3493 1.37098 13.0694 1.64072 13.5869C1.90322 14.0969 2.50389 14.375 3.32139 14.375H14.6612C15.4786 14.3749 16.0784 14.0969 16.3409 13.5869C16.6107 13.0694 16.506 12.3496 16.0636 11.7197H16.0714C16.0714 11.7197 16.0558 11.7045 16.0558 11.6895L10.003 2.12695C9.78548 1.8197 9.41045 1.625 8.99815 1.625ZM8.99815 10.625C9.62065 10.625 10.1231 11.1275 10.1231 11.75C10.123 12.3724 9.62057 12.875 8.99815 12.875C8.37586 12.8748 7.87326 12.3723 7.87315 11.75C7.87315 11.1276 8.37579 10.6252 8.99815 10.625ZM8.99815 3.875C9.41065 3.875 9.74815 4.2125 9.74815 4.625V9.125C9.74803 9.5374 9.41057 9.875 8.99815 9.875C8.58586 9.87483 8.24826 9.5373 8.24815 9.125V4.625C8.24815 4.21261 8.58579 3.87517 8.99815 3.875Z" fill="#7B583A"/>
</svg>
